<?xml version="1.0" standalone="no"?><!DOCTYPE svg PUBLIC "-//W3C//DTD SVG 1.1//EN" "http://www.w3.org/Graphics/SVG/1.1/DTD/svg11.dtd"><svg class="icon" width="32px" height="32.00px" viewBox="0 0 1024 1024" version="1.1" xmlns="http://www.w3.org/2000/svg"><path fill="#d81e06" d="M939.733227 1023.692831H82.116588a62.150585 62.150585 0 0 1-46.484951-22.116189 60.819518 60.819518 0 0 1-11.160484-51.19488C68.805919 724.305169 252.69793 555.874013 474.371763 538.160584a614.338566 614.338566 0 0 1 234.882112 42.184581 397.477052 397.477052 0 0 1 44.334766 22.116189 507.955604 507.955604 0 0 1 245.735427 348.125187 55.49525 55.49525 0 0 1-13.310669 51.194881 62.764924 62.764924 0 0 1-46.484952 22.218578z"  /><path fill="#d81e06" d="M83.242876 987.754025a22.525747 22.525747 0 0 1-17.713429-7.781622c-0.614339-0.614339-0.614339-1.126287-1.126287-1.638236a24.368763 24.368763 0 0 1-5.119488-20.477953c40.955904-210.615738 213.277872-368.60314 419.79802-383.449655h16.587141c99.215678 0 194.540546 30.716928 241.025498 60.409959a477.545845 477.545845 0 0 1 228.841115 323.039696 27.952405 27.952405 0 0 1-6.143385 22.116189 22.525747 22.525747 0 0 1-17.713429 7.781622z"  /><path fill="#d81e06" d="M495.873613 587.717228c96.451155 0 189.011499 29.89781 233.858214 58.157385a458.194181 458.194181 0 0 1 221.571443 313.619838 12.593941 12.593941 0 0 1-3.788421 11.570043 9.010299 9.010299 0 0 1-6.655335 2.252574H83.242876a8.805519 8.805519 0 0 1-6.655335-2.252574 7.167283 7.167283 0 0 0-2.764523-2.764524 8.907909 8.907909 0 0 1-1.126288-8.293571c39.829617-204.779522 206.622538-357.340266 406.589741-372.289171h16.075193"  /><path fill="#d81e06" d="M495.873613 559.969603a159.113689 159.113689 0 0 0-17.09909 0.614339c-212.765923 15.358464-390.10499 177.236676-432.187182 394.405359a37.065093 37.065093 0 0 0 8.907909 33.276672A36.143586 36.143586 0 0 0 84.266773 1001.576642h857.616639a35.529247 35.529247 0 0 0 28.771523-13.310669 42.389361 42.389361 0 0 0 8.907909-33.276672A487.477652 487.477652 0 0 0 744.680732 622.632137c-47.09929-29.385861-143.345665-62.662534-248.807119-62.662534z"  /><path fill="#d81e06" d="M511.948805 254.848115m-254.848115 0a254.848115 254.848115 0 1 0 509.69623 0 254.848115 254.848115 0 1 0-509.69623 0Z"  /><path fill="#d81e06" d="M511.948805 473.655034A218.909309 218.909309 0 1 1 731.370063 254.848115a218.806919 218.806919 0 0 1-219.421258 218.806919z"  /><path fill="#d81e06" d="M511.948805 49.761424a204.779522 204.779522 0 1 1-204.779522 204.779522 204.779522 204.779522 0 0 1 204.779522-204.779522m0-27.645236A232.731927 232.731927 0 1 0 744.680732 254.848115 232.731927 232.731927 0 0 0 512.051195 22.116188z"  /></svg>